<?xml version="1.0" ?><svg id="Layer_1" style="enable-background:new 0 0 24 24;" version="1.1" viewBox="0 0 24 24" xml:space="preserve" xmlns="http://www.w3.org/2000/svg" xmlns:xlink="http://www.w3.org/1999/xlink"><path d="M20.823,14.454c-0.066-0.066-0.15-0.112-0.242-0.133  c-0.179-0.04-0.389,0.012-0.687,0.097c-0.413,0.118-1.038,0.295-1.827,0.295c-1.334,0-2.631-0.522-3.857-1.55l1.419-1.418  c0.143-0.143,0.186-0.358,0.108-0.545c-0.077-0.187-0.26-0.309-0.462-0.309h-1.157c-0.555,0-1.006-0.451-1.006-1.006V8.729  c0-0.202-0.122-0.385-0.309-0.462c-0.189-0.078-0.403-0.035-0.545,0.109l-1.417,1.42C8.696,7.242,9.314,5.065,9.584,4.113  c0.088-0.309,0.141-0.495,0.097-0.688C9.66,3.333,9.614,3.25,9.548,3.184C8.15,1.775,6.287,1,4.302,1  C3.259,1,2.249,1.213,1.298,1.633C1.151,1.698,1.045,1.829,1.011,1.986c-0.033,0.156,0.011,0.32,0.117,0.439  C3.014,4.521,3.7,7.398,2.964,10.122c-0.051,0.187,0.011,0.385,0.158,0.511c0.127,0.108,0.254,0.218,0.373,0.336  c1.111,1.11,1.77,2.592,1.858,4.172c0.012,0.221,0.013,0.442,0.003,0.662C5.3,16.946,4.84,18.121,4.023,19.199l-0.242,0.32  c-0.151,0.199-0.132,0.479,0.045,0.655c0.176,0.177,0.455,0.197,0.655,0.045l0.32-0.243c1.078-0.816,2.254-1.276,3.397-1.331  c0.221-0.011,0.441-0.01,0.662,0.002c1.58,0.087,3.062,0.747,4.174,1.858c0.119,0.119,0.228,0.246,0.335,0.372  c0.125,0.147,0.32,0.208,0.512,0.159c2.674-0.726,5.633-0.024,7.7,1.834C21.673,22.955,21.794,23,21.916,23  c0.035,0,0.07-0.003,0.104-0.011c0.157-0.033,0.288-0.14,0.353-0.287C23.607,19.913,22.983,16.598,20.823,14.454z" id="XMLID_54_" style="fill:#303C42;"/><g/><g/><g/><g/><g/><g/><g/><g/><g/><g/><g/><g/><g/><g/><g/></svg>